<svg id="my-svg" width="100%" xmlns="http://www.w3.org/2000/svg" xmlns:xlink="http://www.w3.org/1999/xlink" class="classDiagram" style="max-width: 1111.31px; background-color: white;" viewBox="0 0 1111.3125 522" role="graphics-document document" aria-roledescription="class"><style>#my-svg{font-family:"trebuchet ms",verdana,arial,sans-serif;font-size:16px;fill:#333;}@keyframes edge-animation-frame{from{stroke-dashoffset:0;}}@keyframes dash{to{stroke-dashoffset:0;}}#my-svg .edge-animation-slow{stroke-dasharray:9,5!important;stroke-dashoffset:900;animation:dash 50s linear infinite;stroke-linecap:round;}#my-svg .edge-animation-fast{stroke-dasharray:9,5!important;stroke-dashoffset:900;animation:dash 20s linear infinite;stroke-linecap:round;}#my-svg .error-icon{fill:#552222;}#my-svg .error-text{fill:#552222;stroke:#552222;}#my-svg .edge-thickness-normal{stroke-width:1px;}#my-svg .edge-thickness-thick{stroke-width:3.5px;}#my-svg .edge-pattern-solid{stroke-dasharray:0;}#my-svg .edge-thickness-invisible{stroke-width:0;fill:none;}#my-svg .edge-pattern-dashed{stroke-dasharray:3;}#my-svg .edge-pattern-dotted{stroke-dasharray:2;}#my-svg .marker{fill:#333333;stroke:#333333;}#my-svg .marker.cross{stroke:#333333;}#my-svg svg{font-family:"trebuchet ms",verdana,arial,sans-serif;font-size:16px;}#my-svg p{margin:0;}#my-svg g.classGroup text{fill:#9370DB;stroke:none;font-family:"trebuchet ms",verdana,arial,sans-serif;font-size:10px;}#my-svg g.classGroup text .title{font-weight:bolder;}#my-svg .nodeLabel,#my-svg .edgeLabel{color:#131300;}#my-svg .edgeLabel .label rect{fill:#ECECFF;}#my-svg .label text{fill:#131300;}#my-svg .labelBkg{background:#ECECFF;}#my-svg .edgeLabel .label span{background:#ECECFF;}#my-svg .classTitle{font-weight:bolder;}#my-svg .node rect,#my-svg .node circle,#my-svg .node ellipse,#my-svg .node polygon,#my-svg .node path{fill:#ECECFF;stroke:#9370DB;stroke-width:1px;}#my-svg .divider{stroke:#9370DB;stroke-width:1;}#my-svg g.clickable{cursor:pointer;}#my-svg g.classGroup rect{fill:#ECECFF;stroke:#9370DB;}#my-svg g.classGroup line{stroke:#9370DB;stroke-width:1;}#my-svg .classLabel .box{stroke:none;stroke-width:0;fill:#ECECFF;opacity:0.5;}#my-svg .classLabel .label{fill:#9370DB;font-size:10px;}#my-svg .relation{stroke:#333333;stroke-width:1;fill:none;}#my-svg .dashed-line{stroke-dasharray:3;}#my-svg .dotted-line{stroke-dasharray:1 2;}#my-svg #compositionStart,#my-svg .composition{fill:#333333!important;stroke:#333333!important;stroke-width:1;}#my-svg #compositionEnd,#my-svg .composition{fill:#333333!important;stroke:#333333!important;stroke-width:1;}#my-svg #dependencyStart,#my-svg .dependency{fill:#333333!important;stroke:#333333!important;stroke-width:1;}#my-svg #dependencyStart,#my-svg .dependency{fill:#333333!important;stroke:#333333!important;stroke-width:1;}#my-svg #extensionStart,#my-svg .extension{fill:transparent!important;stroke:#333333!important;stroke-width:1;}#my-svg #extensionEnd,#my-svg .extension{fill:transparent!important;stroke:#333333!important;stroke-width:1;}#my-svg #aggregationStart,#my-svg .aggregation{fill:transparent!important;stroke:#333333!important;stroke-width:1;}#my-svg #aggregationEnd,#my-svg .aggregation{fill:transparent!important;stroke:#333333!important;stroke-width:1;}#my-svg #lollipopStart,#my-svg .lollipop{fill:#ECECFF!important;stroke:#333333!important;stroke-width:1;}#my-svg #lollipopEnd,#my-svg .lollipop{fill:#ECECFF!important;stroke:#333333!important;stroke-width:1;}#my-svg .edgeTerminals{font-size:11px;line-height:initial;}#my-svg .classTitleText{text-anchor:middle;font-size:18px;fill:#333;}#my-svg .label-icon{display:inline-block;height:1em;overflow:visible;vertical-align:-0.125em;}#my-svg .node .label-icon path{fill:currentColor;stroke:revert;stroke-width:revert;}#my-svg :root{--mermaid-font-family:"trebuchet ms",verdana,arial,sans-serif;}</style><g><defs><marker id="my-svg_class-aggregationStart" class="marker aggregation class" refX="18" refY="7" markerWidth="190" markerHeight="240" orient="auto"><path d="M 18,7 L9,13 L1,7 L9,1 Z"/></marker></defs><defs><marker id="my-svg_class-aggregationEnd" class="marker aggregation class" refX="1" refY="7" markerWidth="20" markerHeight="28" orient="auto"><path d="M 18,7 L9,13 L1,7 L9,1 Z"/></marker></defs><defs><marker id="my-svg_class-extensionStart" class="marker extension class" refX="18" refY="7" markerWidth="190" markerHeight="240" orient="auto"><path d="M 1,7 L18,13 V 1 Z"/></marker></defs><defs><marker id="my-svg_class-extensionEnd" class="marker extension class" refX="1" refY="7" markerWidth="20" markerHeight="28" orient="auto"><path d="M 1,1 V 13 L18,7 Z"/></marker></defs><defs><marker id="my-svg_class-compositionStart" class="marker composition class" refX="18" refY="7" markerWidth="190" markerHeight="240" orient="auto"><path d="M 18,7 L9,13 L1,7 L9,1 Z"/></marker></defs><defs><marker id="my-svg_class-compositionEnd" class="marker composition class" refX="1" refY="7" markerWidth="20" markerHeight="28" orient="auto"><path d="M 18,7 L9,13 L1,7 L9,1 Z"/></marker></defs><defs><marker id="my-svg_class-dependencyStart" class="marker dependency class" refX="6" refY="7" markerWidth="190" markerHeight="240" orient="auto"><path d="M 5,7 L9,13 L1,7 L9,1 Z"/></marker></defs><defs><marker id="my-svg_class-dependencyEnd" class="marker dependency class" refX="13" refY="7" markerWidth="20" markerHeight="28" orient="auto"><path d="M 18,7 L9,13 L14,7 L9,1 Z"/></marker></defs><defs><marker id="my-svg_class-lollipopStart" class="marker lollipop class" refX="13" refY="7" markerWidth="190" markerHeight="240" orient="auto"><circle stroke="black" fill="transparent" cx="7" cy="7" r="6"/></marker></defs><defs><marker id="my-svg_class-lollipopEnd" class="marker lollipop class" refX="1" refY="7" markerWidth="190" markerHeight="240" orient="auto"><circle stroke="black" fill="transparent" cx="7" cy="7" r="6"/></marker></defs><g class="root"><g class="clusters"/><g class="edgePaths"><path d="M118.293,296L118.293,304.167C118.293,312.333,118.293,328.667,126.484,342.625C134.674,356.583,151.056,368.167,159.246,373.958L167.437,379.75" id="id_TradePrint_SymbolId_1" class="edge-thickness-normal edge-pattern-solid relation" style=";;;" data-edge="true" data-et="edge" data-id="id_TradePrint_SymbolId_1" data-points="W3sieCI6MTE4LjI5Mjk2ODc1LCJ5IjoyOTZ9LHsieCI6MTE4LjI5Mjk2ODc1LCJ5IjozNDV9LHsieCI6MTcyLjMzNTkzNzUsInkiOjM4My4yMTM4Nzg5MjI0ODk4N31d" marker-end="url(#my-svg_class-dependencyEnd)"/><path d="M392.652,320L392.652,324.167C392.652,328.333,392.652,336.667,384.462,346.625C376.271,356.583,359.89,368.167,351.699,373.958L343.508,379.75" id="id_BookUpdate_SymbolId_2" class="edge-thickness-normal edge-pattern-solid relation" style=";;;" data-edge="true" data-et="edge" data-id="id_BookUpdate_SymbolId_2" data-points="W3sieCI6MzkyLjY1MjM0Mzc1LCJ5IjozMjB9LHsieCI6MzkyLjY1MjM0Mzc1LCJ5IjozNDV9LHsieCI6MzM4LjYwOTM3NSwieSI6MzgzLjIxMzg3ODkyMjQ4OTg3fV0=" marker-end="url(#my-svg_class-dependencyEnd)"/></g><g class="edgeLabels"><g class="edgeLabel"><g class="label" data-id="id_TradePrint_SymbolId_1" transform="translate(0, 0)"><foreignObject width="0" height="0"><div xmlns="http://www.w3.org/1999/xhtml" class="labelBkg" style="display: table-cell; white-space: nowrap; line-height: 1.5; max-width: 200px; text-align: center;"><span class="edgeLabel"></span></div></foreignObject></g></g><g class="edgeLabel"><g class="label" data-id="id_BookUpdate_SymbolId_2" transform="translate(0, 0)"><foreignObject width="0" height="0"><div xmlns="http://www.w3.org/1999/xhtml" class="labelBkg" style="display: table-cell; white-space: nowrap; line-height: 1.5; max-width: 200px; text-align: center;"><span class="edgeLabel"></span></div></foreignObject></g></g></g><g class="nodes"><g class="node default" id="classId-SymbolId-0" transform="translate(255.47265625, 442)"><g class="basic label-container"><path d="M-83.13671875 -72 L83.13671875 -72 L83.13671875 72 L-83.13671875 72" stroke="none" stroke-width="0" fill="#ECECFF" style=""/><path d="M-83.13671875 -72 C-18.279862231980005 -72, 46.57699428603999 -72, 83.13671875 -72 M-83.13671875 -72 C-34.236747082344074 -72, 14.663224585311852 -72, 83.13671875 -72 M83.13671875 -72 C83.13671875 -22.75362619338278, 83.13671875 26.492747613234442, 83.13671875 72 M83.13671875 -72 C83.13671875 -16.646132945868544, 83.13671875 38.70773410826291, 83.13671875 72 M83.13671875 72 C17.834053101891456 72, -47.46861254621709 72, -83.13671875 72 M83.13671875 72 C29.340666334561455 72, -24.45538608087709 72, -83.13671875 72 M-83.13671875 72 C-83.13671875 39.88077268303286, -83.13671875 7.761545366065718, -83.13671875 -72 M-83.13671875 72 C-83.13671875 32.1808847780259, -83.13671875 -7.638230443948203, -83.13671875 -72" stroke="#9370DB" stroke-width="1.3" fill="none" stroke-dasharray="0 0" style=""/></g><g class="annotation-group text" transform="translate(0, -48)"/><g class="label-group text" transform="translate(-36.0078125, -48)"><g class="label" style="font-weight: bolder" transform="translate(0,-12)"><foreignObject width="72.015625" height="24"><div xmlns="http://www.w3.org/1999/xhtml" style="display: table-cell; white-space: nowrap; line-height: 1.5; max-width: 113px; text-align: center;"><span class="nodeLabel markdown-node-label" style=""><p>SymbolId</p></span></div></foreignObject></g></g><g class="members-group text" transform="translate(-71.13671875, 0)"><g class="label" style="" transform="translate(0,-12)"><foreignObject width="99.1875" height="24"><div xmlns="http://www.w3.org/1999/xhtml" style="display: table-cell; white-space: nowrap; line-height: 1.5; max-width: 145px; text-align: center;"><span class="nodeLabel markdown-node-label" style=""><p>+String venue</p></span></div></foreignObject></g><g class="label" style="" transform="translate(0,12)"><foreignObject width="106.265625" height="24"><div xmlns="http://www.w3.org/1999/xhtml" style="display: table-cell; white-space: nowrap; line-height: 1.5; max-width: 154px; text-align: center;"><span class="nodeLabel markdown-node-label" style=""><p>+String symbol</p></span></div></foreignObject></g></g><g class="methods-group text" transform="translate(-71.13671875, 72)"/><g class="divider" style=""><path d="M-83.13671875 -24 C-29.10344988375774 -24, 24.92981898248452 -24, 83.13671875 -24 M-83.13671875 -24 C-30.11530613970453 -24, 22.90610647059094 -24, 83.13671875 -24" stroke="#9370DB" stroke-width="1.3" fill="none" stroke-dasharray="0 0" style=""/></g><g class="divider" style=""><path d="M-83.13671875 48 C-25.255197762836758 48, 32.626323224326484 48, 83.13671875 48 M-83.13671875 48 C-28.54048935989752 48, 26.05574003020496 48, 83.13671875 48" stroke="#9370DB" stroke-width="1.3" fill="none" stroke-dasharray="0 0" style=""/></g></g><g class="node default" id="classId-TradePrint-1" transform="translate(118.29296875, 164)"><g class="basic label-container"><path d="M-110.29296875 -132 L110.29296875 -132 L110.29296875 132 L-110.29296875 132" stroke="none" stroke-width="0" fill="#ECECFF" style=""/><path d="M-110.29296875 -132 C-51.03970736127797 -132, 8.213554027444061 -132, 110.29296875 -132 M-110.29296875 -132 C-34.08998753448763 -132, 42.11299368102473 -132, 110.29296875 -132 M110.29296875 -132 C110.29296875 -55.020323545500915, 110.29296875 21.95935290899817, 110.29296875 132 M110.29296875 -132 C110.29296875 -67.73371413053694, 110.29296875 -3.467428261073877, 110.29296875 132 M110.29296875 132 C49.32243932062847 132, -11.648090108743062 132, -110.29296875 132 M110.29296875 132 C46.92408527678712 132, -16.444798196425765 132, -110.29296875 132 M-110.29296875 132 C-110.29296875 59.830840675469574, -110.29296875 -12.338318649060852, -110.29296875 -132 M-110.29296875 132 C-110.29296875 46.02148873070489, -110.29296875 -39.95702253859022, -110.29296875 -132" stroke="#9370DB" stroke-width="1.3" fill="none" stroke-dasharray="0 0" style=""/></g><g class="annotation-group text" transform="translate(0, -108)"/><g class="label-group text" transform="translate(-39.5703125, -108)"><g class="label" style="font-weight: bolder" transform="translate(0,-12)"><foreignObject width="79.140625" height="24"><div xmlns="http://www.w3.org/1999/xhtml" style="display: table-cell; white-space: nowrap; line-height: 1.5; max-width: 118px; text-align: center;"><span class="nodeLabel markdown-node-label" style=""><p>TradePrint</p></span></div></foreignObject></g></g><g class="members-group text" transform="translate(-98.29296875, -60)"><g class="label" style="" transform="translate(0,-12)"><foreignObject width="131.171875" height="24"><div xmlns="http://www.w3.org/1999/xhtml" style="display: table-cell; white-space: nowrap; line-height: 1.5; max-width: 178px; text-align: center;"><span class="nodeLabel markdown-node-label" style=""><p>+SymbolId symbol</p></span></div></foreignObject></g><g class="label" style="" transform="translate(0,12)"><foreignObject width="69.828125" height="24"><div xmlns="http://www.w3.org/1999/xhtml" style="display: table-cell; white-space: nowrap; line-height: 1.5; max-width: 120px; text-align: center;"><span class="nodeLabel markdown-node-label" style=""><p>+i64 price</p></span></div></foreignObject></g><g class="label" style="" transform="translate(0,36)"><foreignObject width="63.59375" height="24"><div xmlns="http://www.w3.org/1999/xhtml" style="display: table-cell; white-space: nowrap; line-height: 1.5; max-width: 113px; text-align: center;"><span class="nodeLabel markdown-node-label" style=""><p>+i64 size</p></span></div></foreignObject></g><g class="label" style="" transform="translate(0,60)"><foreignObject width="155.21875" height="24"><div xmlns="http://www.w3.org/1999/xhtml" style="display: table-cell; white-space: nowrap; line-height: 1.5; max-width: 191px; text-align: center;"><span class="nodeLabel markdown-node-label" style=""><p>+Side aggressor_side</p></span></div></foreignObject></g><g class="label" style="" transform="translate(0,84)"><foreignObject width="109.875" height="24"><div xmlns="http://www.w3.org/1999/xhtml" style="display: table-cell; white-space: nowrap; line-height: 1.5; max-width: 150px; text-align: center;"><span class="nodeLabel markdown-node-label" style=""><p>+u64 sequence</p></span></div></foreignObject></g><g class="label" style="" transform="translate(0,108)"><foreignObject width="157.015625" height="24"><div xmlns="http://www.w3.org/1999/xhtml" style="display: table-cell; white-space: nowrap; line-height: 1.5; max-width: 193px; text-align: center;"><span class="nodeLabel markdown-node-label" style=""><p>+u64 ts_exchange_ns</p></span></div></foreignObject></g><g class="label" style="" transform="translate(0,132)"><foreignObject width="117.859375" height="24"><div xmlns="http://www.w3.org/1999/xhtml" style="display: table-cell; white-space: nowrap; line-height: 1.5; max-width: 172px; text-align: center;"><span class="nodeLabel markdown-node-label" style=""><p>+u64 ts_recv_ns</p></span></div></foreignObject></g></g><g class="methods-group text" transform="translate(-98.29296875, 132)"/><g class="divider" style=""><path d="M-110.29296875 -84 C-39.31969024909952 -84, 31.653588251800954 -84, 110.29296875 -84 M-110.29296875 -84 C-58.97960690725085 -84, -7.666245064501695 -84, 110.29296875 -84" stroke="#9370DB" stroke-width="1.3" fill="none" stroke-dasharray="0 0" style=""/></g><g class="divider" style=""><path d="M-110.29296875 108 C-27.111280870163853 108, 56.070407009672294 108, 110.29296875 108 M-110.29296875 108 C-38.84241235191888 108, 32.60814404616224 108, 110.29296875 108" stroke="#9370DB" stroke-width="1.3" fill="none" stroke-dasharray="0 0" style=""/></g></g><g class="node default" id="classId-BookUpdate-2" transform="translate(392.65234375, 164)"><g class="basic label-container"><path d="M-114.06640625 -156 L114.06640625 -156 L114.06640625 156 L-114.06640625 156" stroke="none" stroke-width="0" fill="#ECECFF" style=""/><path d="M-114.06640625 -156 C-61.78268397241018 -156, -9.498961694820366 -156, 114.06640625 -156 M-114.06640625 -156 C-30.396610854588218 -156, 53.273184540823564 -156, 114.06640625 -156 M114.06640625 -156 C114.06640625 -63.300254745835474, 114.06640625 29.399490508329052, 114.06640625 156 M114.06640625 -156 C114.06640625 -53.77201533978109, 114.06640625 48.455969320437816, 114.06640625 156 M114.06640625 156 C29.89989047257616 156, -54.26662530484768 156, -114.06640625 156 M114.06640625 156 C34.08436502828198 156, -45.89767619343604 156, -114.06640625 156 M-114.06640625 156 C-114.06640625 74.37463253566749, -114.06640625 -7.250734928665025, -114.06640625 -156 M-114.06640625 156 C-114.06640625 63.97412386078035, -114.06640625 -28.051752278439295, -114.06640625 -156" stroke="#9370DB" stroke-width="1.3" fill="none" stroke-dasharray="0 0" style=""/></g><g class="annotation-group text" transform="translate(0, -132)"/><g class="label-group text" transform="translate(-47.1171875, -132)"><g class="label" style="font-weight: bolder" transform="translate(0,-12)"><foreignObject width="94.234375" height="24"><div xmlns="http://www.w3.org/1999/xhtml" style="display: table-cell; white-space: nowrap; line-height: 1.5; max-width: 131px; text-align: center;"><span class="nodeLabel markdown-node-label" style=""><p>BookUpdate</p></span></div></foreignObject></g></g><g class="members-group text" transform="translate(-102.06640625, -84)"><g class="label" style="" transform="translate(0,-12)"><foreignObject width="131.171875" height="24"><div xmlns="http://www.w3.org/1999/xhtml" style="display: table-cell; white-space: nowrap; line-height: 1.5; max-width: 178px; text-align: center;"><span class="nodeLabel markdown-node-label" style=""><p>+SymbolId symbol</p></span></div></foreignObject></g><g class="label" style="" transform="translate(0,12)"><foreignObject width="75.171875" height="24"><div xmlns="http://www.w3.org/1999/xhtml" style="display: table-cell; white-space: nowrap; line-height: 1.5; max-width: 122px; text-align: center;"><span class="nodeLabel markdown-node-label" style=""><p>+Side side</p></span></div></foreignObject></g><g class="label" style="" transform="translate(0,36)"><foreignObject width="73.390625" height="24"><div xmlns="http://www.w3.org/1999/xhtml" style="display: table-cell; white-space: nowrap; line-height: 1.5; max-width: 123px; text-align: center;"><span class="nodeLabel markdown-node-label" style=""><p>+u16 level</p></span></div></foreignObject></g><g class="label" style="" transform="translate(0,60)"><foreignObject width="69.828125" height="24"><div xmlns="http://www.w3.org/1999/xhtml" style="display: table-cell; white-space: nowrap; line-height: 1.5; max-width: 120px; text-align: center;"><span class="nodeLabel markdown-node-label" style=""><p>+i64 price</p></span></div></foreignObject></g><g class="label" style="" transform="translate(0,84)"><foreignObject width="63.59375" height="24"><div xmlns="http://www.w3.org/1999/xhtml" style="display: table-cell; white-space: nowrap; line-height: 1.5; max-width: 113px; text-align: center;"><span class="nodeLabel markdown-node-label" style=""><p>+i64 size</p></span></div></foreignObject></g><g class="label" style="" transform="translate(0,108)"><foreignObject width="137.421875" height="24"><div xmlns="http://www.w3.org/1999/xhtml" style="display: table-cell; white-space: nowrap; line-height: 1.5; max-width: 185px; text-align: center;"><span class="nodeLabel markdown-node-label" style=""><p>+BookAction action</p></span></div></foreignObject></g><g class="label" style="" transform="translate(0,132)"><foreignObject width="109.875" height="24"><div xmlns="http://www.w3.org/1999/xhtml" style="display: table-cell; white-space: nowrap; line-height: 1.5; max-width: 150px; text-align: center;"><span class="nodeLabel markdown-node-label" style=""><p>+u64 sequence</p></span></div></foreignObject></g><g class="label" style="" transform="translate(0,156)"><foreignObject width="157.015625" height="24"><div xmlns="http://www.w3.org/1999/xhtml" style="display: table-cell; white-space: nowrap; line-height: 1.5; max-width: 193px; text-align: center;"><span class="nodeLabel markdown-node-label" style=""><p>+u64 ts_exchange_ns</p></span></div></foreignObject></g><g class="label" style="" transform="translate(0,180)"><foreignObject width="117.859375" height="24"><div xmlns="http://www.w3.org/1999/xhtml" style="display: table-cell; white-space: nowrap; line-height: 1.5; max-width: 172px; text-align: center;"><span class="nodeLabel markdown-node-label" style=""><p>+u64 ts_recv_ns</p></span></div></foreignObject></g></g><g class="methods-group text" transform="translate(-102.06640625, 156)"/><g class="divider" style=""><path d="M-114.06640625 -108 C-43.033747899410216 -108, 27.99891045117957 -108, 114.06640625 -108 M-114.06640625 -108 C-39.87923225185078 -108, 34.30794174629844 -108, 114.06640625 -108" stroke="#9370DB" stroke-width="1.3" fill="none" stroke-dasharray="0 0" style=""/></g><g class="divider" style=""><path d="M-114.06640625 132 C-36.37527972169421 132, 41.315846806611574 132, 114.06640625 132 M-114.06640625 132 C-42.853542407762276 132, 28.359321434475447 132, 114.06640625 132" stroke="#9370DB" stroke-width="1.3" fill="none" stroke-dasharray="0 0" style=""/></g></g><g class="node default" id="classId-AnalyticsSnapshot-3" transform="translate(682.3359375, 164)"><g class="basic label-container"><path d="M-125.6171875 -144 L125.6171875 -144 L125.6171875 144 L-125.6171875 144" stroke="none" stroke-width="0" fill="#ECECFF" style=""/><path d="M-125.6171875 -144 C-51.56308789312493 -144, 22.49101171375014 -144, 125.6171875 -144 M-125.6171875 -144 C-40.45918700416526 -144, 44.69881349166948 -144, 125.6171875 -144 M125.6171875 -144 C125.6171875 -49.62463315447222, 125.6171875 44.75073369105556, 125.6171875 144 M125.6171875 -144 C125.6171875 -36.52468016650822, 125.6171875 70.95063966698356, 125.6171875 144 M125.6171875 144 C33.41673752255802 144, -58.783712454883954 144, -125.6171875 144 M125.6171875 144 C47.775729185426044 144, -30.06572912914791 144, -125.6171875 144 M-125.6171875 144 C-125.6171875 30.348100767703258, -125.6171875 -83.30379846459348, -125.6171875 -144 M-125.6171875 144 C-125.6171875 67.48112761160262, -125.6171875 -9.037744776794767, -125.6171875 -144" stroke="#9370DB" stroke-width="1.3" fill="none" stroke-dasharray="0 0" style=""/></g><g class="annotation-group text" transform="translate(0, -120)"/><g class="label-group text" transform="translate(-72.015625, -120)"><g class="label" style="font-weight: bolder" transform="translate(0,-12)"><foreignObject width="144.03125" height="24"><div xmlns="http://www.w3.org/1999/xhtml" style="display: table-cell; white-space: nowrap; line-height: 1.5; max-width: 171px; text-align: center;"><span class="nodeLabel markdown-node-label" style=""><p>AnalyticsSnapshot</p></span></div></foreignObject></g></g><g class="members-group text" transform="translate(-113.6171875, -72)"><g class="label" style="" transform="translate(0,-12)"><foreignObject width="69.84375" height="24"><div xmlns="http://www.w3.org/1999/xhtml" style="display: table-cell; white-space: nowrap; line-height: 1.5; max-width: 119px; text-align: center;"><span class="nodeLabel markdown-node-label" style=""><p>+i64 delta</p></span></div></foreignObject></g><g class="label" style="" transform="translate(0,12)"><foreignObject width="155.21875" height="24"><div xmlns="http://www.w3.org/1999/xhtml" style="display: table-cell; white-space: nowrap; line-height: 1.5; max-width: 210px; text-align: center;"><span class="nodeLabel markdown-node-label" style=""><p>+i64 cumulative_delta</p></span></div></foreignObject></g><g class="label" style="" transform="translate(0,36)"><foreignObject width="121.421875" height="24"><div xmlns="http://www.w3.org/1999/xhtml" style="display: table-cell; white-space: nowrap; line-height: 1.5; max-width: 168px; text-align: center;"><span class="nodeLabel markdown-node-label" style=""><p>+i64 buy_volume</p></span></div></foreignObject></g><g class="label" style="" transform="translate(0,60)"><foreignObject width="119.625" height="24"><div xmlns="http://www.w3.org/1999/xhtml" style="display: table-cell; white-space: nowrap; line-height: 1.5; max-width: 174px; text-align: center;"><span class="nodeLabel markdown-node-label" style=""><p>+i64 sell_volume</p></span></div></foreignObject></g><g class="label" style="" transform="translate(0,84)"><foreignObject width="103.625" height="24"><div xmlns="http://www.w3.org/1999/xhtml" style="display: table-cell; white-space: nowrap; line-height: 1.5; max-width: 150px; text-align: center;"><span class="nodeLabel markdown-node-label" style=""><p>+i64 last_price</p></span></div></foreignObject></g><g class="label" style="" transform="translate(0,108)"><foreignObject width="149" height="24"><div xmlns="http://www.w3.org/1999/xhtml" style="display: table-cell; white-space: nowrap; line-height: 1.5; max-width: 196px; text-align: center;"><span class="nodeLabel markdown-node-label" style=""><p>+i64 point_of_control</p></span></div></foreignObject></g><g class="label" style="" transform="translate(0,132)"><foreignObject width="147.21875" height="24"><div xmlns="http://www.w3.org/1999/xhtml" style="display: table-cell; white-space: nowrap; line-height: 1.5; max-width: 202px; text-align: center;"><span class="nodeLabel markdown-node-label" style=""><p>+i64 value_area_low</p></span></div></foreignObject></g><g class="label" style="" transform="translate(0,156)"><foreignObject width="153.46875" height="24"><div xmlns="http://www.w3.org/1999/xhtml" style="display: table-cell; white-space: nowrap; line-height: 1.5; max-width: 194px; text-align: center;"><span class="nodeLabel markdown-node-label" style=""><p>+i64 value_area_high</p></span></div></foreignObject></g></g><g class="methods-group text" transform="translate(-113.6171875, 144)"/><g class="divider" style=""><path d="M-125.6171875 -96 C-46.96059937937014 -96, 31.695988741259725 -96, 125.6171875 -96 M-125.6171875 -96 C-47.60692614013624 -96, 30.403335219727524 -96, 125.6171875 -96" stroke="#9370DB" stroke-width="1.3" fill="none" stroke-dasharray="0 0" style=""/></g><g class="divider" style=""><path d="M-125.6171875 120 C-35.79394223365156 120, 54.02930303269687 120, 125.6171875 120 M-125.6171875 120 C-52.45298251467291 120, 20.711222470654178 120, 125.6171875 120" stroke="#9370DB" stroke-width="1.3" fill="none" stroke-dasharray="0 0" style=""/></g></g><g class="node default" id="classId-SignalSnapshot-4" transform="translate(980.6328125, 164)"><g class="basic label-container"><path d="M-122.6796875 -108 L122.6796875 -108 L122.6796875 108 L-122.6796875 108" stroke="none" stroke-width="0" fill="#ECECFF" style=""/><path d="M-122.6796875 -108 C-53.27365240906633 -108, 16.13238268186734 -108, 122.6796875 -108 M-122.6796875 -108 C-66.67928427540613 -108, -10.678881050812265 -108, 122.6796875 -108 M122.6796875 -108 C122.6796875 -27.295777356967292, 122.6796875 53.408445286065415, 122.6796875 108 M122.6796875 -108 C122.6796875 -59.23562953909608, 122.6796875 -10.471259078192162, 122.6796875 108 M122.6796875 108 C29.268333949429106 108, -64.14301960114179 108, -122.6796875 108 M122.6796875 108 C35.00740905519828 108, -52.66486938960344 108, -122.6796875 108 M-122.6796875 108 C-122.6796875 46.08882914638674, -122.6796875 -15.822341707226514, -122.6796875 -108 M-122.6796875 108 C-122.6796875 42.87134385578311, -122.6796875 -22.25731228843378, -122.6796875 -108" stroke="#9370DB" stroke-width="1.3" fill="none" stroke-dasharray="0 0" style=""/></g><g class="annotation-group text" transform="translate(0, -84)"/><g class="label-group text" transform="translate(-60.453125, -84)"><g class="label" style="font-weight: bolder" transform="translate(0,-12)"><foreignObject width="120.90625" height="24"><div xmlns="http://www.w3.org/1999/xhtml" style="display: table-cell; white-space: nowrap; line-height: 1.5; max-width: 150px; text-align: center;"><span class="nodeLabel markdown-node-label" style=""><p>SignalSnapshot</p></span></div></foreignObject></g></g><g class="members-group text" transform="translate(-110.6796875, -36)"><g class="label" style="" transform="translate(0,-12)"><foreignObject width="160.90625" height="24"><div xmlns="http://www.w3.org/1999/xhtml" style="display: table-cell; white-space: nowrap; line-height: 1.5; max-width: 215px; text-align: center;"><span class="nodeLabel markdown-node-label" style=""><p>+&amp;'static str module_id</p></span></div></foreignObject></g><g class="label" style="" transform="translate(0,12)"><foreignObject width="130.3125" height="24"><div xmlns="http://www.w3.org/1999/xhtml" style="display: table-cell; white-space: nowrap; line-height: 1.5; max-width: 170px; text-align: center;"><span class="nodeLabel markdown-node-label" style=""><p>+SignalState state</p></span></div></foreignObject></g><g class="label" style="" transform="translate(0,36)"><foreignObject width="152.578125" height="24"><div xmlns="http://www.w3.org/1999/xhtml" style="display: table-cell; white-space: nowrap; line-height: 1.5; max-width: 192px; text-align: center;"><span class="nodeLabel markdown-node-label" style=""><p>+u16 confidence_bps</p></span></div></foreignObject></g><g class="label" style="" transform="translate(0,60)"><foreignObject width="129.4375" height="24"><div xmlns="http://www.w3.org/1999/xhtml" style="display: table-cell; white-space: nowrap; line-height: 1.5; max-width: 175px; text-align: center;"><span class="nodeLabel markdown-node-label" style=""><p>+u32 quality_flags</p></span></div></foreignObject></g><g class="label" style="" transform="translate(0,84)"><foreignObject width="104.515625" height="24"><div xmlns="http://www.w3.org/1999/xhtml" style="display: table-cell; white-space: nowrap; line-height: 1.5; max-width: 148px; text-align: center;"><span class="nodeLabel markdown-node-label" style=""><p>+String reason</p></span></div></foreignObject></g></g><g class="methods-group text" transform="translate(-110.6796875, 108)"/><g class="divider" style=""><path d="M-122.6796875 -60 C-27.4461582883676 -60, 67.7873709232648 -60, 122.6796875 -60 M-122.6796875 -60 C-24.901406737539247 -60, 72.8768740249215 -60, 122.6796875 -60" stroke="#9370DB" stroke-width="1.3" fill="none" stroke-dasharray="0 0" style=""/></g><g class="divider" style=""><path d="M-122.6796875 84 C-44.464409372136416 84, 33.75086875572717 84, 122.6796875 84 M-122.6796875 84 C-69.67385148749446 84, -16.668015474988934 84, 122.6796875 84" stroke="#9370DB" stroke-width="1.3" fill="none" stroke-dasharray="0 0" style=""/></g></g></g></g></g></svg>